# xmcd
#
# Track frame offsets:
#	150
#	17503
#	42092
#	69738
#	80649
#	105264
#	137682
#	158546
#	190257
#	235562
#	253967
#	268359
#
# Disc length: 3938 seconds
#
# Revision: 0
# Processed by: cddbd v1.4PL0 Copyright (c) Steve Scherf et al.
# Submitted via: audiograbber 1.82.01
#
DISCID=9a0f600c
DTITLE=Breezee - À¶µ÷¾ôÊ¿ The Blues Of Jazz
DYEAR=2003
DGENRE=Jazz
TTITLE0=ÓĞÄãÎÒÒôÀÖµÄÒ¹Íí
TTITLE1=À¶µ÷´óÈü
TTITLE2=¼ÅÄ¯¹«Â·
TTITLE3=°®µÄ²Ëµ¥
TTITLE4=½ñÉúÓĞÔ¼
TTITLE5=¸ĞĞ»
TTITLE6=Ê®·ÖÖ®Ò»µÄ°®
TTITLE7=´ËÇé²»Óå
TTITLE8=ÎÂÈáµÄÁùÔÂ
TTITLE9=ĞÇ¹'¦´¦
TTITLE10=ÂêÀöÂ¶
TTITLE11=ÇïÒ¶
EXTD=
EXTT0=
EXTT1=
EXTT2=
EXTT3=
EXTT4=
EXTT5=
EXTT6=
EXTT7=
EXTT8=
EXTT9=
EXTT10=
EXTT11=
PLAYORDER=
